<svg xmlns="http://www.w3.org/2000/svg" xmlns:xlink="http://www.w3.org/1999/xlink" width="64" height="64" viewBox="0 0 64 64"><defs><clipPath id="a"><rect width="64" height="64" transform="translate(189.197 86)" fill="#fff"/></clipPath><filter id="b" x="-9" y="19" width="82" height="65" filterUnits="userSpaceOnUse"><feOffset input="SourceAlpha"/><feGaussianBlur stdDeviation="8" result="c"/><feFlood/><feComposite operator="in" in2="c"/><feComposite in="SourceGraphic"/></filter></defs><g transform="translate(-189.197 -86)" clip-path="url(#a)"><g transform="translate(189.197 86)"><g transform="translate(0 0)"><path d="M21.57,45.394h0a5.11,5.11,0,0,1-2.493-1.377l-7.911-7.9,2.417-2.417L21.49,41.6c.026.026.054.053.082.076v3.716Zm2.424-.041h0V41.511l7.9-7.9,2.421,2.417-7.991,7.991A5.121,5.121,0,0,1,24,45.352ZM9.454,34.4,1.377,26.321A5.121,5.121,0,0,1,.043,23.993h3.84l7.987,7.987L9.454,34.4h0Zm26.573-.081h0L33.611,31.9l7.9-7.9h3.841a5.121,5.121,0,0,1-1.335,2.327Zm9.368-12.742H41.677c-.025-.028-.05-.056-.076-.082l-7.906-7.911,2.417-2.417,7.906,7.9a5.11,5.11,0,0,1,1.377,2.493Zm-41.677,0H0a5.11,5.11,0,0,1,1.377-2.511l7.991-7.984,2.415,2.411-7.991,8c-.026.026-.053.054-.076.082Zm28.264-9.707L23.995,3.882V.041a5.121,5.121,0,0,1,2.327,1.335L34.4,9.452Zm-18.489-.085h0L11.081,9.369l7.984-7.991A5.11,5.11,0,0,1,21.57,0V3.716c-.028.025-.056.05-.082.076Z" transform="translate(9.217 9.217)" fill="#fff"/><path d="M31.5,64V33.214L9.728,54.983l-.711-.711L30.786,32.5H0V31.5H30.786L9.017,9.728l.711-.711L31.5,30.786V0H32.5V30.786L54.272,9.017l.711.711L33.214,31.5H64V32.5H33.214l21.77,21.768-.711.711L32.5,33.214V64Z" fill="#fff"/></g><rect width="19.62" height="19.62" rx="3.666" transform="translate(18.04 31.916) rotate(-45)" fill="#fff"/></g><g transform="translate(0 -4)"><g transform="matrix(1, 0, 0, 1, 189.2, 90)" filter="url(#b)"><path d="M5.667,0H28.333C31.463,0,34,2.239,34,5v7c0,2.761-2.537,5-5.667,5H5.667C2.537,17,0,14.761,0,12V5C0,2.239,2.537,0,5.667,0Z" transform="translate(15 43)" fill="#ff4e4e"/></g><text transform="translate(221.197 145)" font-size="10" font-family="Roboto-Bold, Roboto" font-weight="700"><tspan x="-12.217" y="0">BETA</tspan></text></g></g></svg>