<?xml version="1.0" encoding="utf-8"?>
<svg xmlns="http://www.w3.org/2000/svg" viewBox="0 0 48 48" width="144" height="144">
  <path d="M24.048828 2 A 1.50015 1.50015 0 0 0 22.998047 2.3847656C22.998047 2.3847656 15.490168 9 6.5 9 A 1.50015 1.50015 0 0 0 5 10.5L5 22.759766C5 29.437814 8.0894135 40.426402 23.417969 46.882812 A 1.50015 1.50015 0 0 0 24.582031 46.882812C39.910586 40.426403 43 29.437814 43 22.759766L43 10.5 A 1.50015 1.50015 0 0 0 41.5 9C32.509832 9 25.001953 2.3847656 25.001953 2.3847656 A 1.50015 1.50015 0 0 0 24.048828 2 z M 24 5.4277344C26.062966 7.0863651 32.111257 11.337189 40 11.875L40 22.759766C40 28.502023 37.793444 37.765684 24 43.826172C10.206556 37.765684 8 28.502023 8 22.759766L8 11.875C15.888743 11.337189 21.937034 7.0863651 24 5.4277344 z M 24 14C23.18 14 22.070937 15.88 21.460938 19L26.539062 19C25.929062 15.88 24.82 14 24 14 z M 20.820312 14.519531C18.490312 15.299531 16.549844 16.91 15.339844 19L19.419922 19C19.729922 17.28 20.190313 15.729531 20.820312 14.519531 z M 27.179688 14.519531C27.809687 15.729531 28.270078 17.28 28.580078 19L32.660156 19C31.450156 16.91 29.509687 15.299531 27.179688 14.519531 z M 14.460938 21C14.160937 21.95 14 22.95 14 24C14 25.05 14.160937 26.05 14.460938 27L19.150391 27C19.050391 26.02 19 25.01 19 24C19 22.99 19.050391 21.98 19.150391 21L14.460938 21 z M 21.160156 21C21.060156 21.93 21 22.93 21 24C21 25.07 21.060156 26.07 21.160156 27L26.839844 27C26.939844 26.07 27 25.07 27 24C27 22.93 26.939844 21.93 26.839844 21L21.160156 21 z M 28.849609 21C28.949609 21.98 29 22.99 29 24C29 25.01 28.949609 26.02 28.849609 27L33.539062 27C33.839063 26.05 34 25.05 34 24C34 22.95 33.839063 21.95 33.539062 21L28.849609 21 z M 15.339844 29C16.549844 31.09 18.490313 32.700469 20.820312 33.480469C20.190312 32.270469 19.729922 30.72 19.419922 29L15.339844 29 z M 21.460938 29C22.070938 32.12 23.18 34 24 34C24.82 34 25.929063 32.12 26.539062 29L21.460938 29 z M 28.580078 29C28.270078 30.72 27.809688 32.270469 27.179688 33.480469C29.509687 32.700469 31.450156 31.09 32.660156 29L28.580078 29 z" fill="#FFFFFF" />
</svg>