<svg xmlns="http://www.w3.org/2000/svg" xmlns:xlink="http://www.w3.org/1999/xlink" width="64" height="64" viewBox="0 0 64 64"><defs><clipPath id="a"><rect width="64" height="64" transform="translate(197.197 97)" fill="#fff"/></clipPath><filter id="b" x="-7" y="17" width="78" height="65" filterUnits="userSpaceOnUse"><feOffset input="SourceAlpha"/><feGaussianBlur stdDeviation="8" result="c"/><feFlood/><feComposite operator="in" in2="c"/><feComposite in="SourceGraphic"/></filter></defs><g transform="translate(-197.197 -97)" clip-path="url(#a)"><path d="M35.282,7.36a2,2,0,0,0-1.394,3.348l9.886,11.121a22.126,22.126,0,0,0-4.2-.441q-.1-.008-.191-.008h-24a2,2,0,1,0,0,4H26.833c-.065.047-.135.089-.2.137a2,2,0,0,0-.578.367l-18,16a2,2,0,1,0,2.656,2.992l8.867-7.883a16.266,16.266,0,0,0-.2,2.387c0,9.934,8.962,18,20,18s20-8.066,20-18A17.163,17.163,0,0,0,53.032,26.25a2,2,0,0,0-.152-.2l-16-18A2,2,0,0,0,35.282,7.36Zm4.1,18.019c7.024,0,13.932,4.348,14,12,.06,6.926-5.75,12-14,12-7.966,0-13.962-4.934-14-12C25.344,29.969,31.41,25.375,39.384,25.379Zm-.336,4c-4.418,0-8,3.134-8,7s3.582,7,8,7,8-3.134,8-7S43.466,29.379,39.048,29.379Z" transform="translate(195.813 96.632)" fill="#fff"/><g transform="translate(8 5)"><g transform="matrix(1, 0, 0, 1, 189.2, 92)" filter="url(#b)"><path d="M5,0H25a5,5,0,0,1,5,5v7a5,5,0,0,1-5,5H5a5,5,0,0,1-5-5V5A5,5,0,0,1,5,0Z" transform="translate(17 41)" fill="#ffe600"/></g><text transform="translate(221.197 145)" font-size="10" font-family="Roboto-Bold, Roboto" font-weight="700"><tspan x="-10.376" y="0">WEB</tspan></text></g></g></svg>