<svg xmlns="http://www.w3.org/2000/svg" xmlns:xlink="http://www.w3.org/1999/xlink" width="80" height="80" viewBox="0 0 80 80"><defs><clipPath id="a"><rect width="80" height="80" transform="translate(189.197 86)" fill="#fff"/></clipPath></defs><g transform="translate(-189.197 -86)" clip-path="url(#a)"><path d="M33.3,7.98a1.773,1.773,0,0,0-1.673,1.27L20.99,43.522a1.773,1.773,0,1,0,3.384,1.053L35.01,10.3A1.773,1.773,0,0,0,33.3,7.98ZM15.6,13.894a1.773,1.773,0,0,0-1.233.505L2.552,25.627a1.773,1.773,0,0,0,0,2.571L14.37,39.425a1.773,1.773,0,1,0,2.442-2.571L6.346,26.912l10.465-9.941A1.773,1.773,0,0,0,15.6,13.894Zm24.741,0a1.773,1.773,0,0,0-1.156,3.075l10.465,9.941L39.187,36.854a1.773,1.773,0,1,0,2.442,2.571L53.447,28.2a1.773,1.773,0,0,0,0-2.571L41.629,14.4a1.773,1.773,0,0,0-1.286-.5Z" transform="translate(201.198 99.07)" fill="#fff"/></g></svg>