<svg xmlns="http://www.w3.org/2000/svg" xmlns:xlink="http://www.w3.org/1999/xlink" width="80" height="80" viewBox="0 0 80 80"><defs><clipPath id="a"><rect width="80" height="80" transform="translate(189.197 86)" fill="#fff"/></clipPath></defs><g transform="translate(-189.197 -86)" clip-path="url(#a)"><path d="M17.658,9.777a1.734,1.734,0,0,0-1.273.585L3.1,25.384a1.734,1.734,0,0,0,.045,2.345L27.408,53.151a1.734,1.734,0,0,0,2.507,0L54.182,27.729a1.733,1.733,0,0,0,.045-2.345L40.938,10.362a1.733,1.733,0,0,0-2.526-.077L28.66,20.037l-9.75-9.752a1.734,1.734,0,0,0-1.253-.508Zm1.758,5.918,8.019,8.019a1.734,1.734,0,0,0,2.453,0L37.9,15.7v4.462l-9.24,9.03-9.188-9.037-.061-.054Zm-3.467.393v5.279L12.864,24.8H8.242Zm25.422,0L49.079,24.8H44.524l-3.153-3.507Zm-2.325,7.8L41.3,26.4l-12.637,12.7L16.087,26.4l2.25-2.5,9.109,8.958a1.734,1.734,0,0,0,2.426,0Zm-30.6,4.376H13.06l13.867,14v5.36Zm35.881,0H48.88L30.394,47.633v-5.36Z" transform="translate(200.536 94.269)" fill="#fff"/></g></svg>