<?xml version="1.0" encoding="utf-8"?>
<svg xmlns="http://www.w3.org/2000/svg" viewBox="0 0 48 48" width="144" height="144">
  <path d="M11.5 6C8.4802259 6 6 8.4802259 6 11.5L6 36.5C6 39.519774 8.4802259 42 11.5 42L36.5 42C39.519774 42 42 39.519774 42 36.5L42 31.746094 A 1.50015 1.50015 0 0 0 42 31.259766L42 11.5C42 8.4802259 39.519774 6 36.5 6L11.5 6 z M 11.5 9L36.5 9C37.898226 9 39 10.101774 39 11.5L39 30L34.730469 30L32.970703 21.205078 A 1.50015 1.50015 0 0 0 30.029297 21.205078L28.269531 30L27.794922 30L25.484375 14.28125 A 1.50015 1.50015 0 0 0 24.037109 13.001953 A 1.50015 1.50015 0 0 0 22.515625 14.28125L20.205078 30L19.630859 30L17.941406 24.087891 A 1.50015 1.50015 0 0 0 15.058594 24.087891L13.369141 30L9 30L9 11.5C9 10.101774 10.101774 9 11.5 9 z M 24 24.808594L24.890625 30.863281C25.068969 32.079488 26.13341 33 27.363281 33L28.679688 33C29.861089 33 30.898328 32.149897 31.130859 30.992188 A 1.50015 1.50015 0 0 0 31.130859 30.990234L31.5 29.148438L31.867188 30.990234C32.099207 32.150995 33.137403 33 34.320312 33L39 33L39 36.5C39 37.898226 37.898226 39 36.5 39L11.5 39C10.101774 39 9 37.898226 9 36.5L9 33L13.746094 33C14.855771 33 15.844469 32.254494 16.150391 31.1875L16.5 29.958984L16.851562 31.1875C17.15689 32.252424 18.146667 33 19.255859 33L20.636719 33C21.86659 33 22.931031 32.079488 23.109375 30.863281L24 24.808594 z" fill="#FFFFFF" />
</svg>