<svg xmlns="http://www.w3.org/2000/svg" xmlns:xlink="http://www.w3.org/1999/xlink" width="80" height="80" viewBox="0 0 80 80"><defs><clipPath id="a"><rect width="80" height="80" transform="translate(189.197 86)" fill="#fff"/></clipPath></defs><g transform="translate(-189.197 -86)" clip-path="url(#a)"><g transform="translate(206.452 86)"><circle cx="22.745" cy="22.745" r="22.745" transform="translate(0 15.826)" fill="#fff"/><path d="M67.428,106.164,62.494,91.927l4.934-4.934,4.8-4.8,0-.84-.289.289-9.867,9.867-.264.264.121.351L71.8,120.6l.292.843.006-1.789Z" transform="translate(-49.617 -42.209)" fill="#fff"/><path d="M92.776,91.508l-9.867-9.867-.289-.289,0,.84,9.737,9.734-9.606,27.719.006,1.789.292-.843,9.867-28.475.121-.351Z" transform="translate(-59.745 -42.208)" fill="#fff"/><path d="M77.555,82.989l-4.8,4.8Z" transform="translate(-54.942 -43.005)" fill="#383838"/><path d="M82.876,129.68l9.607-27.719Z" transform="translate(-59.87 -52.24)" fill="none"/><path d="M68.073,92.345,63.14,97.28l4.934,14.237L63.14,97.28Z" transform="translate(-50.262 -47.561)" fill="none"/><path d="M92.36,92.724l-9.735-9.735h0Z" transform="translate(-59.748 -43.006)" fill="none"/><path d="M72.875,82.989l-4.8,4.8-4.934,4.934,4.934,14.237,4.673,13.486Z" transform="translate(-50.262 -43.005)"/><path d="M82.754,120.444l9.607-27.719-9.735-9.735Z" transform="translate(-59.748 -43.004)"/><g transform="translate(7.103 0)"><path d="M68.45,67.107,83.12,52.438,68.45,10.1,53.781,52.438l14.67,14.67Z" transform="translate(-52.809 -7.522)"/><path d="M67.528,7.654,82.2,49.988l-14.67,14.67-14.67-14.67L67.528,7.654m0-2.582-.8,2.3L52.06,49.709l-.174.5.374.374,14.67,14.67.6.6.6-.6L82.8,50.587l.374-.374-.174-.5L68.327,7.377l-.8-2.3Z" transform="translate(-51.886 -5.072)" fill="#fff"/></g><path d="M72.754,129.7l4.673,13.484h0Z" transform="translate(-54.942 -65.748)" fill="#383838"/><path d="M82.368,156.734h0l.261-.753h0Z" transform="translate(-59.623 -78.541)" fill="#383838"/><path d="M82.368,82.731l.132.132h0Z" transform="translate(-59.623 -42.88)" fill="#383838"/><path d="M82.374,45.722,82.245,8.167l-.129,37.555.129-.129Z" transform="translate(-59.5 -6.579)" fill="#fff"/><path d="M82.252,82.863l-.132-.132-.132.132L81.86,120.32l.261.753.261-.753Z" transform="translate(-59.375 -42.88)" fill="#fff"/><path d="M82.115,156.734h0l-.261-.753-.006,1.789.267.771.267-.771-.006-1.789Z" transform="translate(-59.37 -78.541)" fill="#fff"/><path d="M82.243,81.937h0l.132.132,0-.839-.129-.129-.129.129,0,.839Z" transform="translate(-59.498 -42.086)" fill="#fff"/><path d="M81.859,155.981l.261.753h0Z" transform="translate(-59.375 -78.541)" fill="#383838"/><path d="M82.242,82.731h0l-.132.132h0Z" transform="translate(-59.497 -42.88)" fill="#383838"/></g></g></svg>